# xmcd
#
# Track frame offsets:
#	150
#	15525
#	29400
#	56250
#	71175
#	85575
#	102300
#	117450
#	149175
#	183375
#	199875
#	218475
#	240675
#	255525
#	269400
#	285375
#	300825
#	314925
#	331950
#
# Disc length: 4636 seconds
#
# Revision: 1
# Processed by: cddbd v1.5.1PL0 Copyright (c) Steve Scherf et al.
# Submitted via: audiograbber 1.83.01
#
DISCID=1b121a13
DTITLE=Various Artist - Tanecni Liga 84
DYEAR=2005
DGENRE=Dance
TTITLE0=Bodyrockers - Round And Round (Album Version)
TTITLE1=Dancing Dj's vs. Roxette - Fading Like A Flower (Radio Edit)
TTITLE2=Jan Wayne - Time To Fly (Extended Mix)
TTITLE3=Sylver - Take Me Back (Edit)
TTITLE4=Dj Disco - Stamp Your Feet 2005 (Drunkenmunky Remix-Edit)
TTITLE5=Warp Brothers feat. Red Monkey - Blade (Short Mix)
TTITLE6=Rico Bass vs. Fun Fun - Happy Station (Radio Edit)
TTITLE7=Moby - Beautiful (Benny Benassi Remix)
TTITLE8=Tom Novy vs. Michael Marshall - Your Body (Andy van Remix)
TTITLE9=Tomcraft - Quelle Heure Est-II (Radio Edit)
TTITLE10=Antifunky - Let's Go Dancing - Are You Ready ? (2005 Radio Edit)
TTITLE11=84 King Street - So Meny Men, So Little Time (Prezioso and Marvin Remix)
TTITLE12=Loona - Oye El Boom (Radio Edit)
TTITLE13=Elize - I'm Not Latino (Radio Edit)
TTITLE14=Mandy and Randy - B-B-Baby (Kiss Me And Repeat) (Radio Edit)
TTITLE15=Black Maschine 2005 - One, Two, Three, Four (How Gee)
TTITLE16=One-T feat. Cool-T and Fat-T - Hamburgesa
TTITLE17=Gigi D'Agostino - I Wonder Why
TTITLE18=Sonique - Sleezy
EXTD=
EXTT0=
EXTT1=
EXTT2=
EXTT3=
EXTT4=
EXTT5=
EXTT6=
EXTT7=
EXTT8=
EXTT9=
EXTT10=
EXTT11=
EXTT12=
EXTT13=
EXTT14=
EXTT15=
EXTT16=
EXTT17=
EXTT18=
PLAYORDER=
